# xmcd
#
# Track frame offsets:
# 183
# 16290
# 30580
# 53723
# 70518
# 94243
# 118608
# 137055
# 149780
# 175583
# 184823
#
# Disc length: 2690 seconds
#
#
# Revision: 0
# Processed by: cddbd v1.5.1PL0 Copyright (c) Steve Scherf et al.
# Submitted via: FreeRIP 2.941 
#
DISCID=950a800b
DTITLE=Mercedes Sosa - Sino
DYEAR=1900
DGENRE=Country
TTITLE0=Honrar La Vida
TTITLE1=La Solitaria
TTITLE2=Caruso
TTITLE3=Río De Camalotes
TTITLE4=Luna
TTITLE5=Sina
TTITLE6=La Ultima Curda
TTITLE7=Encuentros Y Despedidas
TTITLE8=Palito De Tola
TTITLE9=La Media Pena
TTITLE10=Cinco Siglos Igual
EXTD=
EXTT0=
EXTT1=
EXTT2=
EXTT3=
EXTT4=
EXTT5=
EXTT6=
EXTT7=
EXTT8=
EXTT9=
EXTT10=
PLAYORDER=
